<?xml version="1.0" encoding="UTF-8"?>
<svg version="1.1" xmlns="http://www.w3.org/2000/svg" width="1024" height="1024">
<path d="M0 0 C337.92 0 675.84 0 1024 0 C1024 337.92 1024 675.84 1024 1024 C686.08 1024 348.16 1024 0 1024 C0 686.08 0 348.16 0 0 Z " fill="#16223E" transform="translate(0,0)"/>
<path d="M0 0 C1.71528604 -0.00417707 3.43056932 -0.00965663 5.1458475 -0.01631981 C9.84126617 -0.0307443 14.53650887 -0.02653905 19.23193705 -0.019153 C24.30296696 -0.01441617 29.37395907 -0.02693578 34.44497681 -0.03717041 C44.37282964 -0.05435404 54.30061916 -0.05519926 64.228483 -0.04995751 C72.29974559 -0.04591352 80.3709895 -0.04736209 88.44225121 -0.05270576 C89.59169318 -0.05345419 90.74113516 -0.05420261 91.92540872 -0.05497371 C94.26063088 -0.05650521 96.59585303 -0.05804356 98.93107518 -0.05958868 C120.8237757 -0.07331232 142.71644048 -0.06787713 164.60914018 -0.05640347 C184.62659009 -0.04647278 204.64394754 -0.05940919 224.66138319 -0.08333766 C245.22686785 -0.10773557 265.79230945 -0.11733472 286.35780829 -0.11068493 C297.89910711 -0.10719406 309.44033484 -0.10941603 320.9816227 -0.12693596 C330.80719361 -0.14166662 340.63264338 -0.14228208 350.45821194 -0.12486505 C355.46845207 -0.11635959 360.47847589 -0.11419448 365.48870468 -0.1295166 C370.08126022 -0.14338717 374.67341459 -0.13857009 379.26594707 -0.11927737 C380.92131822 -0.1155243 382.57672169 -0.11841921 384.23206399 -0.12888902 C398.03344482 -0.20992682 409.94746834 1.6783 421.09196472 10.38768005 C422.01235535 11.04703552 422.01235535 11.04703552 422.95133972 11.7197113 C430.88418623 17.80975055 435.62460583 26.84195951 438.09196472 36.38768005 C438.47619173 39.49447116 438.49807204 42.55140713 438.47228146 45.67912102 C438.47694137 46.57429461 438.48160129 47.46946821 438.48640242 48.39176828 C438.4983266 51.38297794 438.48896685 54.37373122 438.47964478 57.36494446 C438.48381881 59.53452013 438.48929671 61.70409362 438.49596459 63.87366307 C438.51042868 69.82936351 438.50617138 75.78492568 438.49879777 81.74063373 C438.49407083 88.16611709 438.50657178 94.59157033 438.51681519 101.01704407 C438.53361644 112.87533439 438.5354466 124.73358281 438.53051019 136.59188223 C438.52595155 147.54825615 438.52655403 158.50461369 438.53235054 169.46098709 C438.53310741 170.9311332 438.53386339 172.40127931 438.53461849 173.87142543 C438.53576369 176.08685498 438.53691357 178.30228452 438.53807773 180.51771406 C438.54878153 201.11267059 438.55350922 221.70762167 438.54560757 242.30257988 C438.54531039 243.07879283 438.54501322 243.85500578 438.54470704 244.65474033 C438.54225815 250.95797605 438.53964654 257.2612117 438.53702291 263.56444734 C438.52692094 288.14991934 438.53527541 312.73532304 438.55851746 337.32078552 C438.58459442 364.9496682 438.59743681 392.57850977 438.59032971 420.20740521 C438.58961366 423.15385063 438.58893927 426.10029605 438.58828926 429.04674149 C438.58811945 429.77221848 438.58794964 430.49769548 438.58777469 431.24515663 C438.58547254 442.19234713 438.59344469 453.13949943 438.60658073 464.08668137 C438.62149494 476.53785138 438.62195691 488.98892552 438.60450982 501.44009386 C438.59598569 507.79281493 438.59388501 514.14536514 438.60916138 520.49807739 C438.62297594 526.31490199 438.61828653 532.13140884 438.59892214 537.9482149 C438.59515194 540.05108772 438.59811335 542.15398579 438.60853379 544.25683616 C438.67643788 559.01048942 437.50957513 570.40564991 428.09196472 582.38768005 C427.5634491 583.06572693 427.03493347 583.7437738 426.49040222 584.44236755 C419.83065879 591.98225328 409.04347386 597.75436179 399.09196472 599.38768005 C396.72865573 599.48128453 394.36295971 599.52031381 391.99780178 599.52469444 C391.29157589 599.52734627 390.58535 599.5299981 389.85772333 599.53273028 C387.48530512 599.54040508 385.11293882 599.54098176 382.74050903 599.5415802 C381.02470331 599.54559601 379.30889853 599.55003444 377.59309489 599.55485976 C372.8731034 599.5668177 368.15312213 599.5724719 363.43311846 599.57704091 C358.34430626 599.58299989 353.25550625 599.59460894 348.16670227 599.60533142 C335.87496648 599.62984771 323.58322666 599.64448097 311.29147395 599.65739149 C307.81964099 599.66110383 304.34780842 599.66507703 300.87597585 599.66914415 C279.31495738 599.69437989 257.75393827 599.71643231 236.19290829 599.7288723 C231.19938085 599.73180198 226.20585344 599.73476364 221.21232605 599.73777771 C219.97121492 599.73852376 218.7301038 599.73926981 217.45138324 599.74003847 C197.3456341 599.75269242 177.23997339 599.78591667 157.13426559 599.82757954 C136.49098223 599.87000567 115.84774414 599.89356808 95.20441729 599.89879286 C83.61441745 599.90220607 72.02455584 599.91395094 60.43459892 599.9468956 C50.56422675 599.97490643 40.69402115 599.9858908 30.82361232 599.97470014 C25.78917036 599.96951631 20.75507717 599.97238263 15.72068596 599.99716568 C11.1069572 600.01968798 6.49382715 600.01889514 1.88008768 599.99996181 C0.21582721 599.997166 -1.44847412 600.00273695 -3.112669 600.01777475 C-19.38344025 600.1557454 -30.90661394 595.34619713 -42.90803528 584.38768005 C-54.43411651 571.75332178 -54.48944962 557.20606386 -54.40924072 541.08088684 C-54.41313695 538.91213321 -54.41877997 536.74338213 -54.42601162 534.57463706 C-54.44073756 528.63513768 -54.43060187 522.69590419 -54.41627491 516.75641346 C-54.40515297 510.34327212 -54.41711172 503.9301677 -54.42611694 497.51702881 C-54.43923831 485.68725092 -54.4342752 473.85756879 -54.42004166 462.02779458 C-54.40697784 451.09951702 -54.40179624 440.17126993 -54.40435982 429.24298477 C-54.40452023 428.51742884 -54.40468065 427.7918729 -54.40484593 427.04433042 C-54.40550953 424.09891126 -54.40621195 421.15349211 -54.40697127 418.20807297 C-54.41399111 390.59323092 -54.39851755 362.97844253 -54.37234781 335.36361414 C-54.34922885 310.83809063 -54.34384683 286.31262607 -54.3540802 261.78709412 C-54.35668229 255.50531199 -54.35926732 249.22352987 -54.36167812 242.94174767 C-54.36197557 242.16834593 -54.36227302 241.3949442 -54.36257948 240.59810605 C-54.37019631 220.09300919 -54.36378056 199.58791715 -54.3529821 179.08282244 C-54.35183432 176.87619337 -54.35069114 174.6695643 -54.34955528 172.46293522 C-54.34880003 170.99917265 -54.34803439 169.53541009 -54.34725827 168.07164754 C-54.34160328 157.14977894 -54.34292761 146.22792562 -54.3474865 135.30605698 C-54.35259665 122.88714295 -54.34643186 110.46829613 -54.3265922 98.04939507 C-54.31671902 91.71300977 -54.3116155 85.37671734 -54.31948471 79.04032707 C-54.32654114 73.2397529 -54.3197375 67.43936614 -54.30188108 61.63881667 C-54.29783643 59.54076455 -54.29883673 57.44269535 -54.30539995 55.3446496 C-54.31356328 52.4907959 -54.30322169 49.63757174 -54.28835201 46.78375816 C-54.29508966 45.97117711 -54.30182731 45.15859606 -54.30876914 44.32139134 C-54.18780406 32.29864225 -49.34890573 21.84151411 -41.15803528 13.13768005 C-28.96632281 1.66449056 -16.0460765 -0.06369324 0 0 Z " fill="#6E50F9" transform="translate(384.9080352783203,243.61231994628906)"/>
<path d="M0 0 C0.89589844 0.21140625 1.79179688 0.4228125 2.71484375 0.640625 C12.54820962 3.33659174 21.56694546 9.03375564 29 16 C29 16.66 29 17.32 29 18 C29.58910156 18.2371875 30.17820312 18.474375 30.78515625 18.71875 C39.69942122 23.87550293 44.69986517 38.14604442 47.421875 47.578125 C51.52182586 64.75359483 49.15586811 82.671993 40.75390625 98.19140625 C35.31993859 106.89301593 28.59897624 114.3269514 20 120 C19.34 120 18.68 120 18 120 C18.00075944 120.59789762 18.00151888 121.19579524 18.00230134 121.81181097 C18.04706186 157.25161552 18.08137534 192.69141519 18.10213066 228.13124213 C18.10463206 232.38697397 18.1072207 236.64270575 18.10986328 240.8984375 C18.11065021 242.16929167 18.11065021 242.16929167 18.11145304 243.46581966 C18.12015458 257.18239318 18.13592318 270.89894993 18.15430559 284.6155135 C18.17301161 298.69098555 18.18411821 312.76644881 18.18817699 326.84193277 C18.19092059 335.52656701 18.1995847 344.21115383 18.21583293 352.89577347 C18.22640847 358.85192414 18.22959933 364.80805031 18.22700275 370.76420969 C18.22572235 374.20008538 18.22767905 377.63587825 18.23841095 381.0717392 C18.24835576 384.79996748 18.24597036 388.52799264 18.24050903 392.25622559 C18.24924756 393.87881546 18.24924756 393.87881546 18.25816262 395.53418493 C18.20773955 408.26263201 14.57347931 419.66610164 5.5625 429 C-4.32336766 438.14318979 -14.50478429 440.45478091 -27.69441223 440.39440918 C-28.95136939 440.40050028 -30.20832655 440.40659139 -31.50337332 440.41286707 C-34.97162435 440.42919241 -38.43964696 440.42696392 -41.90792286 440.4214921 C-45.6565235 440.4188127 -49.40506451 440.43337073 -53.15364075 440.44558716 C-60.48979334 440.46660516 -67.82586684 440.47118409 -75.16204599 440.46939927 C-81.12760408 440.46808979 -87.09313757 440.47190526 -93.05869102 440.47932434 C-94.77942822 440.48142362 -96.50016542 440.48352122 -98.22090262 440.48561716 C-99.50574027 440.48718245 -99.50574027 440.48718245 -100.81653424 440.48877937 C-117.00365293 440.50766716 -133.19072626 440.50663605 -149.37785139 440.49981004 C-164.17112273 440.49423588 -178.96422083 440.51505719 -193.75745169 440.54817051 C-208.96325633 440.58194198 -224.16897806 440.59707152 -239.37482089 440.59245348 C-247.90527215 440.59021226 -256.4355633 440.59540105 -264.96598244 440.62034607 C-272.22870013 440.64140394 -279.49116991 440.6449069 -286.75389794 440.62604648 C-290.45577525 440.61691603 -294.1571909 440.61566194 -297.85903168 440.63640213 C-301.88125619 440.6586871 -305.90240219 440.64182821 -309.92463684 440.62145996 C-311.08195574 440.63397781 -312.23927464 440.64649566 -313.43166381 440.65939283 C-324.59112457 440.53866536 -333.93478718 437.02672646 -342.03125 429.23828125 C-350.6515778 419.43778952 -353.45468122 409.40333489 -353.38768005 396.64689636 C-353.39306559 395.41458937 -353.39845113 394.18228239 -353.40399987 392.91263276 C-353.4157983 389.50849847 -353.41422374 386.10485605 -353.40683305 382.70074165 C-353.40209268 379.02304132 -353.41461899 375.34539291 -353.42485046 371.66770935 C-353.44202759 364.4687768 -353.44288063 357.26993157 -353.43763756 350.07098385 C-353.43359212 344.21742682 -353.43504387 338.36389554 -353.44038582 332.51033974 C-353.44113424 331.67644051 -353.44188266 330.84254129 -353.44265376 329.98337239 C-353.44418529 328.2891537 -353.44572363 326.59493502 -353.44726873 324.90071634 C-353.46099018 309.01979385 -353.45555889 293.13892064 -353.44408352 277.25799928 C-353.43415448 262.74207161 -353.44708673 248.22627147 -353.47101771 233.71036347 C-353.49542494 218.79275012 -353.50501241 203.87519613 -353.49836498 188.95756322 C-353.49487599 180.58756351 -353.49708354 172.21766181 -353.51461601 163.84767723 C-353.52935844 156.72143895 -353.52994701 149.5953677 -353.5125451 142.46913262 C-353.50404887 138.83630666 -353.50185134 135.20377882 -353.51719666 131.57096863 C-353.53365701 127.62517906 -353.51885929 123.67984646 -353.50120544 119.73405457 C-353.51081045 118.59648639 -353.52041546 117.45891822 -353.53031152 116.28687829 C-353.44166464 106.63163199 -351.17350824 97.6139935 -345 90 C-344.34 90 -343.68 90 -343 90 C-342.73445313 89.401875 -342.46890625 88.80375 -342.1953125 88.1875 C-338.28755648 81.03605107 -329.96666991 77.16800233 -322.47252655 74.96132088 C-317.67662756 73.78780787 -313.07144147 73.72720322 -308.15441895 73.75949097 C-307.19203229 73.75778212 -306.22964564 73.75607327 -305.23809576 73.75431263 C-302.02909628 73.75103124 -298.82030818 73.76199921 -295.61132812 73.77294922 C-293.30475876 73.77351362 -290.99818903 73.7731962 -288.69161987 73.77206421 C-282.44019529 73.77149084 -276.1888476 73.78324267 -269.93744087 73.79721212 C-263.40047725 73.80972208 -256.86351183 73.81089019 -250.32653809 73.81326294 C-239.35797799 73.81843799 -228.38944481 73.83126006 -217.42089844 73.84912109 C-206.12597799 73.8674944 -194.8310652 73.8816438 -183.53613281 73.89013672 C-182.83927764 73.89066217 -182.14242246 73.89118761 -181.42445046 73.89172898 C-177.92834291 73.89433916 -174.4322353 73.89686655 -170.93612766 73.89935279 C-141.95739982 73.92006785 -112.97870059 73.95542736 -84 74 C-84.00785522 73.04697243 -84.00785522 73.04697243 -84.01586914 72.07469177 C-84.03676015 69.17350264 -84.04969858 66.2723294 -84.0625 63.37109375 C-84.07087891 62.37154663 -84.07925781 61.37199951 -84.08789062 60.34216309 C-84.14136695 44.18896992 -77.60027041 29.79770158 -66.33203125 18.203125 C-47.80911806 0.70409143 -24.94884301 -6.41752131 0 0 Z " fill="#171436" transform="translate(739,298)"/>
<path d="M0 0 C1.66890098 -0.0056083 3.33779801 -0.012512 5.00668883 -0.02059597 C9.58312948 -0.03892041 14.15940547 -0.03855273 18.73587441 -0.03501284 C23.67536715 -0.03440007 28.61480733 -0.05096425 33.55427551 -0.06518555 C43.2280547 -0.09009059 52.90177904 -0.09834941 62.5755876 -0.10002268 C70.44000487 -0.10144885 78.30440406 -0.1076165 86.16881561 -0.11712456 C108.47247065 -0.1435403 130.7760824 -0.15738329 153.07975319 -0.15513314 C154.88283914 -0.15495333 154.88283914 -0.15495333 156.72235107 -0.1547699 C157.92587832 -0.15464726 159.12940556 -0.15452461 160.36940333 -0.15439826 C179.87360621 -0.15317894 199.37763531 -0.18188679 218.88178793 -0.224185 C238.91497137 -0.26728724 258.94807008 -0.28799495 278.98130107 -0.28540367 C290.22586198 -0.28440814 301.47024071 -0.29263265 312.71475983 -0.32493782 C322.28865465 -0.35226736 331.8622847 -0.35876694 341.43620166 -0.33840955 C346.31882174 -0.32862091 351.200934 -0.32841703 356.08350563 -0.3544693 C360.55844741 -0.37810051 365.03247974 -0.37373599 369.50739965 -0.3476169 C371.12109557 -0.3430196 372.73485975 -0.34843193 374.34847513 -0.36519713 C387.62266324 -0.49391498 397.85033768 2.7129093 407.70428467 12.06520081 C416.53707031 22.18398589 419.07505246 32.42528537 418.93865967 45.46363831 C418.93441483 47.0114801 418.93441483 47.0114801 418.93008423 48.59059143 C418.91895969 51.86089562 418.89386943 55.13091798 418.86834717 58.40113831 C418.85830738 60.62899891 418.84918328 62.85686384 418.84100342 65.08473206 C418.81904572 70.52362902 418.78564577 75.96236352 418.74334717 81.40113831 C417.84991822 81.40260352 417.84991822 81.40260352 416.9384402 81.40409833 C381.59841203 81.46243298 346.25844915 81.53627699 310.91849702 81.63012459 C306.67049814 81.64139208 302.42249894 81.65253064 298.17449951 81.66358948 C296.90600614 81.666895 296.90600614 81.666895 295.61188664 81.67026731 C281.9381841 81.70559204 268.26448162 81.73048336 254.59075044 81.75148533 C240.54911237 81.77328588 226.50753325 81.80637653 212.46594536 81.84983987 C203.80897606 81.87628345 195.15208016 81.89403245 186.4950725 81.90048435 C180.5500497 81.90576063 174.60511907 81.92205229 168.66014574 81.94680396 C165.2356659 81.96074267 161.81135076 81.97001863 158.38684082 81.96614647 C134.36091618 81.95543023 115.63269808 83.66936017 97.11834717 100.33863831 C92.68596313 104.87282622 90.12022956 109.99387575 87.56903076 115.72901917 C85.55916352 120.1771127 83.36350359 123.02232565 79.74334717 126.40113831 C77.58695189 129.30283148 75.68052473 132.3498037 73.74334717 135.40113831 C73.16584717 136.24676331 72.58834717 137.09238831 71.99334717 137.96363831 C69.05323262 143.69686167 68.49298124 149.60605931 68.48163414 155.96043396 C68.47763808 156.68047004 68.47364202 157.40050611 68.46952486 158.14236146 C68.4585975 160.54363267 68.46174519 162.94467163 68.46487427 165.34596252 C68.45986875 167.08941055 68.4539922 168.83285626 68.44732153 170.57629871 C68.43153858 175.35829842 68.42809179 180.14023935 68.42667294 184.92226195 C68.42297592 190.0823774 68.40781892 195.24246072 68.39405823 200.40255737 C68.37179107 209.33985558 68.3567745 218.27714234 68.34669113 227.21446228 C68.33210181 240.13630222 68.30656424 253.05810229 68.27835985 265.97991884 C68.23289649 286.9450218 68.19627978 307.91013051 68.16522217 328.8752594 C68.13503477 349.24017851 68.10068361 369.60508357 68.06072998 389.96998596 C68.05826843 391.22540931 68.05580688 392.48083266 68.05327074 393.77429914 C68.0408961 400.0724282 68.02843958 406.3705571 68.01594234 412.66868591 C67.91238136 464.91281711 67.82317584 517.15696583 67.74334717 569.40113831 C57.22465848 569.49409627 46.70606862 569.56503377 36.18705177 569.60838699 C31.30185999 569.62920154 26.41695066 569.65740633 21.53192139 569.70289612 C16.811601 569.74657365 12.09155114 569.77032147 7.37104416 569.78064728 C5.57622397 569.78799951 3.78141745 569.80235619 1.98671341 569.82405853 C-13.42171467 570.00285917 -24.22539386 567.49196675 -36.00665283 556.81520081 C-46.74256616 545.35237668 -47.12666543 533.56562874 -47.02528381 518.72868347 C-47.03292072 516.62877039 -47.04316707 514.52886547 -47.05578536 512.42897642 C-47.08270542 506.67952595 -47.07235176 500.93066265 -47.05565989 495.18119574 C-47.04412627 488.97244429 -47.06713621 482.76380559 -47.08561707 476.55508423 C-47.11437184 465.10188614 -47.11573541 453.64894825 -47.10257767 442.1957389 C-47.09045977 431.61284039 -47.08911352 421.03001075 -47.09848595 410.44710922 C-47.09908938 409.74431533 -47.09969282 409.04152144 -47.10031454 408.31743077 C-47.10276447 405.46432769 -47.10524606 402.61122465 -47.10778684 399.75812165 C-47.13133902 373.00763787 -47.11912477 346.25727264 -47.09144132 319.50679864 C-47.0671066 295.75990496 -47.0767295 272.01324712 -47.11431885 248.26637268 C-47.15648601 221.56691625 -47.17566077 194.86759676 -47.15929431 168.16810739 C-47.15761618 165.31967126 -47.15600326 162.4712351 -47.15442467 159.62279892 C-47.15401763 158.92147725 -47.15361059 158.22015558 -47.15319121 157.49758174 C-47.14748423 146.92477602 -47.15941939 136.35208475 -47.1801548 125.77930069 C-47.20367499 113.75127166 -47.20162972 101.72361054 -47.16824166 89.69557549 C-47.15185727 83.56106538 -47.14659442 77.42709282 -47.17184067 71.29260063 C-47.19466176 65.67163375 -47.18489748 60.05167985 -47.14966878 54.4307857 C-47.14257143 52.40265098 -47.14715326 50.3744328 -47.16490779 48.34636338 C-47.27799627 34.39936698 -45.69846094 23.4006788 -36.25665283 12.40113831 C-35.59665283 12.40113831 -34.93665283 12.40113831 -34.25665283 12.40113831 C-34.25665283 11.74113831 -34.25665283 11.08113831 -34.25665283 10.40113831 C-32.35040283 8.78004456 -32.35040283 8.78004456 -29.75665283 6.96363831 C-28.92134033 6.36680237 -28.08602783 5.76996643 -27.22540283 5.15504456 C-18.31209994 -0.11084097 -10.07545312 -0.0320514 0 0 Z " fill="#25345D" transform="translate(236.25665283203125,149.59886169433594)"/>
<path d="M0 0 C0.66685877 -0.00205263 1.33371753 -0.00410527 2.02078414 -0.0062201 C4.25326934 -0.01187037 6.48569245 -0.0104353 8.71818352 -0.00901413 C10.3358568 -0.0115989 11.95352944 -0.01461237 13.57120121 -0.01801753 C18.01529946 -0.02607767 22.45938155 -0.02787655 26.90348625 -0.028615 C31.69711553 -0.03046727 36.49073645 -0.0380155 41.28436089 -0.04475021 C51.76588085 -0.05832712 62.24739698 -0.06435727 72.72892427 -0.06876087 C79.27499567 -0.07152441 85.8210656 -0.07576198 92.367136 -0.08026505 C110.49514295 -0.09245694 128.62314871 -0.10275637 146.75115967 -0.10614014 C148.49122229 -0.10646949 148.49122229 -0.10646949 150.2664377 -0.10680549 C151.42923815 -0.10702377 152.5920386 -0.10724204 153.79007542 -0.10746694 C156.14630961 -0.1079104 158.50254381 -0.10835696 160.858778 -0.10880661 C162.02754887 -0.10902804 163.19631974 -0.10924947 164.40050791 -0.10947761 C183.33572672 -0.11342502 202.27090703 -0.13087768 221.20611097 -0.15416613 C240.65161379 -0.17788895 260.0970973 -0.19034241 279.54261482 -0.19150805 C290.45851099 -0.1924243 301.37435699 -0.19816386 312.29023933 -0.21632767 C321.5859769 -0.23174119 330.88164881 -0.23684171 340.17739673 -0.22858956 C344.91809834 -0.2246875 349.65866775 -0.22559102 354.39935303 -0.23964691 C358.74461169 -0.25241228 363.08963918 -0.25116524 367.43489765 -0.2390562 C369.00154546 -0.23710376 370.5682098 -0.24015656 372.13483442 -0.24890056 C390.00190802 -0.34225992 406.73031566 3.76565679 420.15760612 16.13142776 C430.98058039 27.83591124 435.51028477 41.92121991 435.35291862 57.63142776 C435.34867378 59.2458577 435.34867378 59.2458577 435.34434319 60.89290237 C435.33321343 64.30586076 435.30812207 67.71854967 435.28260612 71.13142776 C435.27256702 73.45564271 435.2634428 75.77986179 435.25526237 78.10408401 C435.23329773 83.77995608 435.19989238 89.45567266 435.15760612 95.13142776 C436.0336152 95.12589701 436.0336152 95.12589701 436.92732143 95.12025452 C451.20281393 95.03153409 465.47828164 94.96553983 479.75398922 94.92417908 C486.65791665 94.90364055 493.56165894 94.87568905 500.46546745 94.82966995 C507.13744883 94.78521773 513.8091989 94.76223926 520.48133469 94.75191879 C523.01722984 94.74457105 525.55311541 94.73022354 528.08892822 94.70850754 C546.74695844 94.55518947 561.65981022 95.60770013 578.15760612 105.13142776 C578.82276237 105.50912308 579.48791862 105.88681839 580.17323112 106.27595901 C585.66721605 109.77775571 589.35235204 114.93439999 593.15760612 120.13142776 C593.63327019 120.75791214 594.10893425 121.38439651 594.59901237 122.02986526 C602.61337253 133.53637608 604.31950774 147.54163352 604.28903389 161.17464161 C604.29211284 162.47716662 604.29211284 162.47716662 604.29525399 163.80600527 C604.30089318 166.70588085 604.29947057 169.60570847 604.29804802 172.50558853 C604.30063342 174.60972648 604.30364707 176.71386395 604.30705142 178.81800073 C604.31510405 184.59298344 604.31691002 190.3679537 604.31764889 196.14294136 C604.31950246 202.37423464 604.32705129 208.6055215 604.3337841 214.83681107 C604.34806271 229.16886747 604.35389221 243.5009198 604.35847605 257.83298181 C604.36081457 264.92014381 604.36441749 272.00730501 604.36817143 279.09446638 C604.38100428 303.36964173 604.39172392 327.64481664 604.39517403 351.91999531 C604.39539566 353.44283194 604.39561744 354.96566858 604.39583938 356.48850521 C604.39606002 358.01494781 604.3962805 359.54139041 604.39650083 361.06783301 C604.39694337 364.1299655 604.39739049 367.192098 604.3978405 370.2542305 C604.39794989 371.01345699 604.39805928 371.77268349 604.39817199 372.55491685 C604.40180182 397.16737113 604.41772045 421.77979595 604.44103086 446.39223896 C604.46564934 472.43356252 604.47934779 498.47486924 604.48054194 524.51620477 C604.48071339 527.37708088 604.48092881 530.23795698 604.48117638 533.09883308 C604.48123215 533.80322571 604.48128791 534.50761833 604.48134537 535.23335619 C604.48249402 546.54857389 604.49350001 557.86376123 604.50806343 569.1789687 C604.5224586 580.56058811 604.52539672 591.94215788 604.51762345 603.32378782 C604.51372207 609.48470628 604.51462171 615.64552302 604.5286808 621.80642891 C604.54144996 627.45384031 604.54019567 633.10107388 604.52809009 638.74848514 C604.52613833 640.78415525 604.52918722 642.81983808 604.53793445 644.85549033 C604.62840134 667.34492165 601.86864053 687.23573602 585.29041862 704.02205276 C573.73452113 714.69617495 559.70739747 720.24715695 543.99283409 720.26285553 C542.94026096 720.26593448 542.94026096 720.26593448 541.86642373 720.26907563 C539.51534664 720.27472952 537.16432844 720.27329037 534.81324577 720.27186966 C533.11037711 720.27445423 531.40750904 720.27746765 529.70464182 720.28087306 C525.02497191 720.2889357 520.34531734 720.29073223 515.66564131 720.29147053 C510.6183929 720.29332239 505.57115243 720.30087046 500.52390862 720.30760574 C489.48648691 720.32118496 478.44906884 720.32721331 467.41164017 720.3316164 C460.51780305 720.33437985 453.62396732 720.33861742 446.73013115 720.34312057 C427.63792064 720.35531333 408.54571125 720.36561223 389.45349693 720.36899567 C388.23163847 720.36921523 387.00978001 720.3694348 385.75089553 720.36966102 C384.52613209 720.3698793 383.30136866 720.37009757 382.03949118 720.37032247 C379.55770397 720.37076593 377.07591677 720.37121249 374.59412956 720.37166214 C373.3630804 720.37188357 372.13203124 720.372105 370.86367756 720.37233314 C350.92426591 720.37627964 330.98489083 720.39372911 311.0454933 720.41702166 C290.56714957 720.44075037 270.08882418 720.45319823 249.61046648 720.45436358 C238.11547319 720.45527956 226.62052755 720.46101217 215.12554741 720.4791832 C205.33543165 720.49460476 195.54537826 720.49969255 185.75525266 720.49144509 C180.76317269 720.48754572 175.77121824 720.48843331 170.77915382 720.50250244 C166.20187481 720.51528418 161.62481509 720.51400649 157.04753619 720.50191173 C155.39875385 720.4999621 153.74995575 720.50299893 152.10119551 720.51175609 C133.22242476 720.60561429 116.43789381 717.32087535 102.22010612 704.00642776 C90.85124208 691.80734861 85.01477932 677.39988108 85.04408073 660.72737503 C85.04393471 660.02409576 85.04378868 659.3208165 85.04363823 658.59622574 C85.04432886 656.29672925 85.05208103 653.99731616 85.05994987 651.69783401 C85.06181708 650.09358133 85.06323955 648.48932807 85.06423759 646.88507462 C85.06803897 642.68147049 85.07784872 638.47790143 85.08894157 634.27431107 C85.09920707 629.97733916 85.10374619 625.68036155 85.108778 621.38338089 C85.11947331 612.96604717 85.13652088 604.54874184 85.15760612 596.13142776 C83.97933754 596.1380896 82.80106895 596.14475143 81.58709526 596.15161514 C70.45042957 596.21258888 59.31379802 596.25747831 48.17700291 596.28686428 C42.45228587 596.30248007 36.72770424 596.32364346 31.00306511 596.35774612 C25.47227279 596.39048557 19.94161024 596.40831148 14.41072845 596.41605949 C12.30694666 596.42157689 10.20317148 596.43235067 8.09944534 596.44861794 C-4.9826004 596.54569793 -16.32925083 596.33342082 -28.21739388 590.19392776 C-29.17387825 589.71052933 -30.13036263 589.22713089 -31.11583138 588.72908401 C-33.94422919 587.07175636 -36.40555718 585.32458079 -38.84239388 583.13142776 C-38.84239388 582.47142776 -38.84239388 581.81142776 -38.84239388 581.13142776 C-39.83239388 580.80142776 -40.82239388 580.47142776 -41.84239388 580.13142776 C-53.57213147 567.85686629 -57.00818043 551.65915166 -56.97661495 535.31688786 C-56.97896718 534.47326426 -56.98131941 533.62964066 -56.98374292 532.76045272 C-56.99037902 529.94471086 -56.98997634 527.12901573 -56.9895649 524.31326675 C-56.99286685 522.26957527 -56.99659312 520.22588443 -57.00070637 518.18219441 C-57.01069619 512.57437556 -57.01443827 506.96656741 -57.01709569 501.35874093 C-57.02100754 495.30744546 -57.03058502 489.2561584 -57.03930855 483.20486832 C-57.05811223 469.28820574 -57.06832356 455.371544 -57.07676923 441.4548724 C-57.0809809 434.5736676 -57.08620211 427.69246367 -57.09145376 420.81125961 C-57.10933824 397.24301085 -57.12433395 373.67476183 -57.13177395 350.1065073 C-57.1322487 348.62812627 -57.13272459 347.14974523 -57.13320161 345.6713642 C-57.13343799 344.93824711 -57.13367436 344.20513002 -57.1339179 343.44979725 C-57.13511906 339.73568255 -57.13633452 336.02156785 -57.13755989 332.30745316 C-57.13780004 331.57038778 -57.13804019 330.83332241 -57.13828762 330.07392172 C-57.14618105 306.17500484 -57.16961671 282.27613758 -57.20211583 258.37724236 C-57.23643662 233.09248627 -57.25612702 207.8077592 -57.25941819 182.52297944 C-57.25983571 179.74583223 -57.26031527 176.96868504 -57.26084137 174.19153786 C-57.26096456 173.50775764 -57.26108775 172.82397743 -57.26121468 172.11947661 C-57.26354355 161.13115257 -57.27918558 150.14288637 -57.29968322 139.15458292 C-57.31996858 128.10458081 -57.32507296 117.054633 -57.31591258 106.00461183 C-57.31136849 100.02213174 -57.31326101 94.03983889 -57.33267403 88.05738449 C-57.35030944 82.57533475 -57.34930461 77.0936088 -57.33377673 71.6115556 C-57.33140132 69.63379194 -57.33572068 67.65600583 -57.34760538 65.67827646 C-57.45326913 46.92566822 -54.32467546 30.35439178 -40.96739388 16.07283401 C-29.24747139 5.36547837 -16.01073053 0.01684082 0 0 Z M-27.46739388 21.25642776 C-28.1196595 21.75400589 -28.77192513 22.25158401 -29.44395638 22.76424026 C-29.90544075 23.21541214 -30.36692513 23.66658401 -30.84239388 24.13142776 C-30.84239388 24.79142776 -30.84239388 25.45142776 -30.84239388 26.13142776 C-31.50239388 26.13142776 -32.16239388 26.13142776 -32.84239388 26.13142776 C-34.30361067 27.83698303 -34.30361067 27.83698303 -35.71739388 30.06892776 C-36.20981575 30.7998262 -36.70223763 31.53072464 -37.20958138 32.28377151 C-41.22243515 39.2822653 -43.44158291 45.03921945 -43.35413837 53.14899349 C-43.36085093 54.01456595 -43.36756348 54.8801384 -43.37447944 55.77194032 C-43.3920377 58.66259983 -43.3812633 61.55243663 -43.37051582 64.44311905 C-43.37727555 66.54043833 -43.38576726 68.63775262 -43.39583904 70.73505861 C-43.41835247 76.49116705 -43.41590544 82.24703475 -43.40926969 88.00317347 C-43.40639544 94.21400693 -43.42644697 100.42477308 -43.44342232 106.63557816 C-43.47278444 118.80114849 -43.48010344 130.96660786 -43.47884681 143.13220455 C-43.47793279 153.02175522 -43.48381527 162.91128032 -43.4944725 172.80082512 C-43.49597079 174.22243859 -43.49746482 175.64405207 -43.49895463 177.06566555 C-43.49969445 177.77136966 -43.50043428 178.47707377 -43.50119652 179.20416286 C-43.50193694 179.91117164 -43.50267735 180.61818042 -43.5034402 181.34661371 C-43.50418524 182.054822 -43.50493028 182.7630303 -43.5056979 183.49269945 C-43.52643185 203.40890469 -43.53866541 223.32510066 -43.53360462 243.2413168 C-43.53341709 243.99194547 -43.53322955 244.74257414 -43.53303634 245.51594913 C-43.53206437 249.32028381 -43.53102051 253.12461848 -43.52995362 256.92895313 C-43.52974264 257.6844816 -43.52953166 258.44001007 -43.52931429 259.21843334 C-43.52888676 260.74629582 -43.52845464 262.27415829 -43.52801792 263.80202077 C-43.52143702 287.56855714 -43.54437149 311.33490727 -43.59019661 335.10139847 C-43.64166762 361.81510371 -43.6695686 388.52868967 -43.66369468 415.24244767 C-43.66315009 418.09261564 -43.66269113 420.9427836 -43.66228867 423.79295158 C-43.66217463 424.49471275 -43.66206058 425.19647392 -43.66194309 425.91950058 C-43.66072083 436.50024687 -43.67797934 447.08086019 -43.70476532 457.6615696 C-43.73523535 469.70063275 -43.74064055 481.73934751 -43.71495631 493.77845099 C-43.70253921 499.91902841 -43.70131567 506.05905869 -43.73066521 512.19959068 C-43.75726671 517.82620799 -43.7512772 523.45183486 -43.71983526 529.07841853 C-43.71412092 531.10867012 -43.72010809 533.13899735 -43.73929127 535.16916635 C-43.86365308 549.2897789 -42.23229606 559.86887678 -32.77989388 571.00642776 C-24.2072428 578.67875476 -14.3048132 583.29963813 -2.86094856 583.24495316 C-2.06057167 583.24509918 -1.26019478 583.24524521 -0.43556404 583.24539566 C2.20489543 583.24470006 4.845284 583.23692417 7.48573112 583.22908401 C9.31847406 583.22721858 11.15121749 583.22579527 12.98396111 583.2247963 C17.80410454 583.22098098 22.62421777 583.2111591 27.44434929 583.20009232 C32.36438908 583.18985701 37.28443375 583.18529413 42.20448112 583.18025589 C51.85553605 583.16953596 61.50656857 583.15247135 71.15760612 583.13142776 C71.15858293 582.24402202 71.15955974 581.35661628 71.16056615 580.44231945 C71.21882569 527.85894214 71.29261302 475.27560618 71.38659241 422.69227994 C71.3978607 416.37992251 71.40899913 410.06756486 71.4200573 403.75520706 C71.42226098 402.49851904 71.42446466 401.24183101 71.42673513 399.94706153 C71.46211701 379.59328952 71.48697612 359.23951754 71.50795314 338.88572616 C71.52970808 318.00415892 71.56275561 297.12263162 71.60630769 276.24109834 C71.63282963 263.3538894 71.65052102 250.46673025 71.65695217 237.57949536 C71.66220436 228.74478418 71.67841574 219.91013567 71.70327178 211.07545806 C71.71729244 205.97671663 71.72645544 200.8780874 71.72261429 195.77932549 C71.71920341 191.11014131 71.72957283 186.44119674 71.75084164 181.77206164 C71.75610874 180.08416854 71.75634527 178.39625055 71.75100175 176.7083577 C71.71904178 165.46662389 72.64478989 156.79420404 78.59510612 146.88142776 C79.17131706 145.90689651 79.747528 144.93236526 80.34119987 143.92830276 C82.5330556 140.55331631 84.82495147 137.39239928 87.75526237 134.61970901 C89.5608011 132.70352446 90.47993549 130.69917722 91.59510612 128.31892776 C97.93186066 115.38372382 107.86585909 105.08701745 121.50135612 99.84627151 C131.09623164 96.77635148 139.77449197 95.98223317 149.78112602 95.97320938 C150.94683587 95.9682714 152.11254571 95.96333343 153.3135801 95.95824581 C156.53581353 95.94557445 159.75802376 95.93726445 162.98027456 95.93081915 C166.4600874 95.92278779 169.93987861 95.9090995 173.41967583 95.89610672 C179.44422983 95.87438268 185.46878607 95.85622337 191.49335861 95.84050179 C200.20382295 95.81776599 208.91426329 95.78962835 217.62470723 95.76018251 C231.75765185 95.71255202 245.8906063 95.66927556 260.02357292 95.62874222 C273.75046872 95.58936415 287.4773558 95.5479324 301.20423698 95.50374222 C302.05070466 95.50101795 302.89717234 95.49829367 303.76929056 95.49548685 C308.01587246 95.48180699 312.26245424 95.46808679 316.50903594 95.45434654 C351.7252079 95.34045315 386.94139836 95.23362805 422.15760612 95.13142776 C422.23415003 88.62108838 422.28641183 82.11086658 422.32240105 75.60017776 C422.33741649 73.38887063 422.35783503 71.17759291 422.38392448 68.9663887 C422.42062766 65.77393168 422.43740543 62.58187101 422.45057487 59.38924026 C422.46605873 58.41278549 422.48154259 57.43633072 422.49749565 56.43028641 C422.50043812 44.2208837 418.48111313 34.24537314 410.34510612 25.09236526 C399.99943196 15.30708178 389.05885589 13.24706892 375.40647697 13.38298416 C373.73269284 13.37749431 372.05891562 13.36938273 370.38515532 13.35889685 C365.8136619 13.33783135 361.24295678 13.35390903 356.6714983 13.37639785 C351.73074301 13.39414728 346.79008727 13.37717617 341.84933281 13.36467361 C332.18202177 13.34573223 322.51501008 13.35886627 312.84772132 13.3831995 C301.58480379 13.41048948 290.32195694 13.40715944 279.05901475 13.40293284 C258.96160887 13.39655826 238.86434492 13.41985957 218.76698112 13.45906448 C199.2737731 13.49708074 179.78073138 13.51123629 160.28748894 13.50008011 C139.04789755 13.48796039 117.80837922 13.48832546 96.56879389 13.51105177 C94.30347228 13.5134663 92.03815067 13.51587827 89.77282906 13.51828766 C88.10105253 13.52009827 88.10105253 13.52009827 86.39550274 13.52194547 C78.54781751 13.52969847 70.70015951 13.52891863 62.85247231 13.52511597 C53.28815141 13.52086874 43.72397602 13.53134557 34.15969609 13.56034307 C29.28146733 13.57481477 24.40345033 13.58299906 19.5252037 13.57385635 C15.05683713 13.5656856 10.58890718 13.57608438 6.12060674 13.60110851 C4.50708025 13.60694954 2.8935124 13.60612008 1.27999668 13.59782235 C-9.45150053 13.54765844 -18.75418784 14.40777611 -27.46739388 21.25642776 Z M106.13807487 126.44002151 C99.81134733 135.03788203 98.00456598 143.43844463 98.02338505 153.91226673 C98.02103282 154.80083698 98.01868059 155.68940723 98.01625708 156.60490385 C98.00957305 159.59760848 98.01002512 162.59026964 98.0104351 165.58298111 C98.00713611 167.74426494 98.00341047 169.90554815 97.99929363 172.06683058 C97.98926959 178.01819364 97.98555618 183.96954661 97.98290431 189.92091691 C97.97900249 196.33489243 97.9694241 202.74885994 97.96069145 209.16283035 C97.94185852 223.92570547 97.9316707 238.68858033 97.92323077 253.45146457 C97.91902342 260.74763937 97.91380155 268.04381336 97.90854624 275.33998747 C97.89065654 300.31826924 97.87566077 325.29655124 97.86822605 350.27483845 C97.8677513 351.84281982 97.86727541 353.41080119 97.86679839 354.97878256 C97.86656201 355.75635539 97.86632564 356.53392821 97.8660821 357.33506385 C97.86488091 361.27459076 97.86366546 365.21411766 97.86244011 369.15364456 C97.86219996 369.93545344 97.86195981 370.71726231 97.86171238 371.52276236 C97.85382005 396.86894212 97.83038933 422.21507508 97.79788417 447.56123441 C97.76357638 474.36196331 97.74387404 501.16266482 97.74058181 527.96341604 C97.74016428 530.90629066 97.73968471 533.84916527 97.73915863 536.79203987 C97.73903544 537.5166523 97.73891225 538.24126472 97.73878532 538.9878351 C97.7364545 550.64253294 97.72080114 562.29717637 97.70031678 573.95185482 C97.68004793 585.66996127 97.6749196 597.38799683 97.68408742 609.10611761 C97.68863676 615.45286596 97.68670868 621.79943781 97.66732597 628.14616203 C97.64972744 633.95886968 97.65066548 639.77127165 97.66622327 645.5839824 C97.66860433 647.68430544 97.66425005 649.78464946 97.65239462 651.88494039 C97.56324423 668.72479337 99.35969145 681.33829023 111.15760612 694.13142776 C123.2385851 705.03686238 135.59825064 707.8820825 151.36430168 707.75288773 C153.0875798 707.75722312 154.81085355 707.76374489 156.53411615 707.77224779 C161.24234205 707.78916437 165.9500324 707.77511061 170.65822983 707.75573301 C175.74621256 707.74025749 180.83413173 707.75372033 185.92211723 707.76347733 C195.87815727 707.77798114 205.83399292 707.76579313 215.79001357 707.74436408 C227.38876334 707.72031814 238.98746664 707.72207064 250.58623581 707.72466999 C271.28259433 707.7283577 291.97885673 707.70755505 312.67518425 707.67341995 C332.75040427 707.64032165 352.82552343 707.62616342 372.90077019 707.63240433 C394.7732039 707.63917051 416.64559541 707.63670225 438.51802289 707.61704493 C439.67491498 707.61600544 440.83180707 707.61496595 442.0237565 707.61389497 C444.34718386 707.61180411 446.6706112 707.60969313 448.99403853 707.6075618 C457.07615888 707.60067097 465.1582662 707.59999609 473.24038887 707.60144424 C483.09014693 707.6028849 492.93982284 707.59317542 502.78955366 707.56949788 C507.81357068 707.55764995 512.83747328 707.55050481 517.8615036 707.55633545 C522.46302727 707.56151793 527.0643095 707.55278141 531.66579191 707.53306085 C533.32777384 707.52833238 534.98977937 707.52860662 536.65175767 707.53447121 C552.44519048 707.58480398 565.43797569 704.67613221 577.40760612 693.63142776 C586.05308031 684.5585059 590.31404828 673.8901047 590.2918272 661.45522594 C590.29417943 660.56582157 590.29653166 659.6764172 590.29895517 658.76006117 C590.30564991 655.7585073 590.30518681 652.75699667 590.30477715 649.75543594 C590.30807547 647.59017768 590.31180098 645.42492003 590.31591862 643.25966316 C590.32595027 637.29270857 590.32965729 631.32576403 590.33230793 625.3588022 C590.33620753 618.92983151 590.3457861 612.50086882 590.3545208 606.07190323 C590.37364231 591.27197408 590.38354273 576.47204371 590.39198148 561.6721052 C590.39618783 554.35855776 590.40140984 547.04501114 590.40666601 539.73146439 C590.4245567 514.69670644 590.4395526 489.66194825 590.4469862 464.62718487 C590.44746096 463.05541128 590.44793684 461.48363769 590.44841386 459.91186411 C590.44865024 459.13240495 590.44888661 458.35294579 590.44913015 457.54986666 C590.45033135 453.60073533 590.4515468 449.65160401 590.45277214 445.70247269 C590.45301229 444.91875532 590.45325244 444.13503796 590.45349987 443.32757159 C590.46139229 417.91921724 590.48482269 392.51090959 590.51732808 367.10257563 C590.55163109 340.24006683 590.57133779 313.37758535 590.57463044 286.51505429 C590.57504798 283.56572249 590.57552754 280.61639072 590.57605362 277.66705894 C590.57617681 276.94084945 590.5763 276.21463995 590.57642693 275.4664241 C590.5787584 263.78264905 590.59441545 252.09892825 590.61489547 240.41517253 C590.63515816 228.66895619 590.64029542 216.92281058 590.63112483 205.17657994 C590.62657361 198.8137605 590.62851443 192.4511171 590.64788628 186.08832169 C590.66547152 180.26205688 590.66455763 174.43609715 590.64898898 168.60982931 C590.64660589 166.5034377 590.65097269 164.39702522 590.66281763 162.29066556 C590.74397674 146.90373553 589.55883373 133.80572007 578.27479362 122.19392776 C576.3010436 120.39820225 574.28171626 118.74575147 572.15760612 117.13142776 C571.55303581 116.66865433 570.9484655 116.20588089 570.32557487 115.72908401 C559.31264094 108.10117819 546.78237866 107.54741294 533.88207817 107.62349319 C532.16348846 107.61887615 530.4449027 107.61251787 528.72632509 107.60458422 C524.03570027 107.58797826 519.34540346 107.59609725 514.65477788 107.60852909 C509.58381455 107.61761315 504.51290597 107.60359331 499.44195366 107.59260941 C489.52084205 107.57485572 479.59985172 107.57865001 469.67873543 107.59025997 C461.61372999 107.59930592 453.54875845 107.60051327 445.48374939 107.5961647 C444.33442516 107.59555177 443.18510093 107.59493884 442.00094869 107.59430733 C439.66588539 107.59302839 437.33082211 107.59173154 434.99575884 107.59041697 C413.11832208 107.57902053 391.24095246 107.59211046 369.36352671 107.61361843 C350.60336529 107.63149093 331.84330287 107.62838221 313.08314323 107.60994339 C291.28063327 107.58852427 269.47818207 107.58011657 247.67566305 107.59239244 C245.34965774 107.5936666 243.02365242 107.59492408 240.69764709 107.5961647 C239.55330061 107.59678181 238.40895412 107.59739891 237.22993047 107.59803471 C229.17678003 107.6014843 221.12366696 107.59566774 213.07052231 107.58624649 C203.25340669 107.57501368 193.43641896 107.57809368 183.61931794 107.59936947 C178.61323569 107.60986218 173.60736648 107.61403198 168.60128593 107.60077286 C164.01382954 107.58880648 159.42678258 107.59548121 154.83936305 107.61668307 C153.18477523 107.62113116 151.53015244 107.61892344 149.87558734 107.60917991 C131.60516952 107.50988651 118.3031035 112.33720072 106.13807487 126.44002151 Z " fill="#13112E" transform="translate(232.84239387512207,135.86857223510742)"/>
<path d="M0 0 C1.94097313 -0.01702469 1.94097313 -0.01702469 3.92115784 -0.03439331 C5.34803834 -0.03175019 6.77491827 -0.028779 8.20179749 -0.0255127 C9.71002836 -0.03285504 11.21825362 -0.04144176 12.72647095 -0.05117798 C16.81740617 -0.07338453 20.90813993 -0.07632514 24.99912715 -0.07443047 C28.416157 -0.07431073 31.83314421 -0.08287591 35.25016218 -0.09120798 C43.31219458 -0.11043866 51.37412344 -0.11332697 59.43617249 -0.10656738 C67.74956015 -0.09992529 76.06250428 -0.12279828 84.37580198 -0.15988111 C91.51736474 -0.19057979 98.65878482 -0.20193802 105.80041224 -0.1980443 C110.06405758 -0.1959771 114.32735769 -0.20145137 118.59094048 -0.22593689 C122.60075465 -0.24820475 126.60984763 -0.24632655 130.61966515 -0.22600937 C132.08941966 -0.22259941 133.55922273 -0.22768799 135.02891159 -0.24199295 C147.51464211 -0.35511542 147.51464211 -0.35511542 151.45132446 2.80786133 C154.41189752 6.38396607 154.71949836 8.01601879 154.73983765 12.5721283 C154.7505706 14.21840965 154.7505706 14.21840965 154.76152039 15.89794922 C154.76420929 17.10777466 154.76689819 18.3176001 154.76966858 19.56408691 C154.77623978 20.83418106 154.78281097 22.10427521 154.7895813 23.41285706 C154.81064053 27.63455946 154.82099153 31.85626227 154.83094788 36.07800293 C154.83499599 37.53329042 154.83911293 38.98857772 154.84329796 40.44386482 C154.86236076 47.28733453 154.87658446 54.13079343 154.88490993 60.97428459 C154.89465992 68.85790244 154.92091581 76.74123784 154.96141082 84.62475628 C154.9916672 90.72598194 155.00638814 96.82712715 155.00969094 102.92842633 C155.01203239 106.56796072 155.02087218 110.20719379 155.04615211 113.84664726 C155.07397225 117.91800241 155.06957281 121.98873622 155.06263733 126.06018066 C155.08185242 127.84759171 155.08185242 127.84759171 155.10145569 129.67111206 C155.04798349 138.31821354 153.67643996 146.68753344 148.34266663 153.76940918 C142.05696118 159.76940074 136.4770136 162.50553364 127.79238892 162.5415802 C126.60772034 162.5487355 125.42305176 162.55589081 124.20248413 162.56326294 C122.25815742 162.5672963 122.25815742 162.5672963 120.27455139 162.57141113 C118.89292735 162.57767891 117.51130498 162.58432599 116.12968445 162.59132385 C111.59782577 162.61232153 107.06596691 162.62271917 102.53407288 162.63269043 C100.97277751 162.63673897 99.41148231 162.64085592 97.8501873 162.64504051 C90.51765123 162.66407925 83.18512518 162.67831553 75.85256916 162.68665248 C67.38991567 162.69643375 58.92752311 162.72278177 50.46496159 162.76315337 C43.92133027 162.79329947 37.37777386 162.80811974 30.83407444 162.81143349 C26.92649205 162.81378484 23.01918886 162.82275656 19.11168098 162.84789467 C15.43686268 162.8711557 11.76250786 162.87541692 8.08763504 162.86513329 C6.09784227 162.8644011 4.10807313 162.88350404 2.11837769 162.90319824 C0.93088928 162.89625443 -0.25659912 162.88931061 -1.48007202 162.88215637 C-2.51005027 162.88454473 -3.54002851 162.88693308 -4.60121822 162.88939381 C-8.14986475 162.26343037 -9.82835229 160.85864406 -12.40733337 158.39440918 C-13.76332826 155.68241941 -13.53638354 153.56167686 -13.54104614 150.52420044 C-13.54531113 149.2735228 -13.54957611 148.02284515 -13.55397034 146.73426819 C-13.55362079 145.34054562 -13.55315924 143.94682308 -13.55259705 142.55310059 C-13.55558786 141.09133315 -13.55899021 139.6295665 -13.56277466 138.1678009 C-13.57162727 134.19050067 -13.57395331 130.21322193 -13.57459044 126.2359128 C-13.5755387 122.91827395 -13.57921607 119.60064013 -13.58276254 116.28300321 C-13.59091208 108.45652918 -13.59334634 100.63006665 -13.59263611 92.80358887 C-13.59203534 84.72497332 -13.60258588 76.64642456 -13.61837977 68.56782591 C-13.63144788 61.63699167 -13.6368203 54.70617928 -13.6361807 47.77533281 C-13.63592547 43.63366182 -13.63879004 39.49205013 -13.64935875 35.35039139 C-13.65902735 31.45491297 -13.65912746 27.55955069 -13.65184212 23.66406822 C-13.65079469 22.23379408 -13.6531685 20.80351276 -13.65920258 19.37325096 C-13.6669029 17.42171029 -13.66108719 15.47013019 -13.65457153 13.51858521 C-13.6551163 12.42609278 -13.65566107 11.33360035 -13.65622234 10.20800209 C-13.39838948 7.29330195 -13.1076812 5.76030847 -11.40733337 3.39440918 C-7.6129329 0.45148085 -4.73861401 0.01573023 0 0 Z " fill="#4336A5" transform="translate(589.4073333740234,562.6055908203125)"/>
<path d="M0 0 C1.72857994 -0.01062721 1.72857994 -0.01062721 3.49208069 -0.02146912 C4.74730026 -0.0189917 6.00251984 -0.01651428 7.29577637 -0.01396179 C8.6381407 -0.0183115 9.98050254 -0.02349552 11.32286072 -0.02944946 C14.96124214 -0.04282137 18.59951956 -0.04342027 22.23792076 -0.04088616 C25.27726529 -0.03981545 28.31658886 -0.04470227 31.3559289 -0.04949158 C38.52616097 -0.06058002 45.69634065 -0.0610276 52.86657715 -0.05497742 C60.26079682 -0.04893419 67.65482638 -0.06125893 75.04901361 -0.08254749 C81.40159394 -0.10016385 87.75411374 -0.10616489 94.10671759 -0.10290974 C97.89908362 -0.10109715 101.69131395 -0.10373078 105.48365784 -0.11762428 C109.04929026 -0.13019905 112.61462611 -0.12826212 116.18025398 -0.11521339 C118.11036578 -0.1117203 120.04048662 -0.12302755 121.9705658 -0.13478088 C123.69914574 -0.12425941 123.69914574 -0.12425941 125.46264648 -0.11352539 C126.46182854 -0.11369313 127.46101059 -0.11386087 128.49047089 -0.1140337 C131.74536716 0.33097664 133.59559655 1.32374606 136.23132324 3.26069641 C138.57853838 6.78151912 138.4881514 8.22714414 138.50547791 12.39628601 C138.51545303 13.68054977 138.52542816 14.96481354 138.53570557 16.28799438 C138.53660139 17.71427905 138.53726495 19.14056388 138.53771973 20.56684875 C138.54533989 22.06655287 138.55376714 23.56625308 138.5629425 25.06594849 C138.58490839 29.14243034 138.59368917 33.21883718 138.59876895 37.29537153 C138.60241001 39.84175096 138.60864875 42.38811066 138.61577034 44.93448257 C138.64027195 53.81666682 138.6533183 62.6987926 138.65686035 71.58100891 C138.66049636 79.86254806 138.69039437 88.14371675 138.73226494 96.42514265 C138.76694562 103.53351565 138.7824084 110.64176575 138.78310639 117.7502228 C138.78389996 121.99655864 138.79267493 126.24251723 138.82110405 130.48876572 C138.84724703 134.48293112 138.84951157 138.47640552 138.83344841 142.47061729 C138.83163088 143.93596209 138.83835224 145.40134627 138.85426712 146.86660576 C138.87467886 148.8680148 138.86120366 150.86968373 138.84605408 152.87113953 C138.8480654 153.99090872 138.85007673 155.11067791 138.85214901 156.2643795 C138.03354217 160.21525532 136.27948073 161.71152653 133.23132324 164.26069641 C130.50731723 165.62269942 128.34939112 165.39919676 125.29864502 165.41459656 C124.03402939 165.42319702 122.76941376 165.43179749 121.46647644 165.44065857 C120.05703776 165.44509395 118.64759865 165.4493923 117.23815918 165.4535675 C115.7599315 165.46146757 114.28170576 165.46973646 112.80348206 165.47834778 C107.94090622 165.50458062 103.07832172 165.51987741 98.21569824 165.53413391 C96.54237106 165.53949321 94.86904393 165.54487072 93.19571686 165.55026627 C86.23517478 165.57189751 79.27463503 165.59063422 72.31406784 165.60188866 C62.33611851 165.61812738 52.35855864 165.65130019 42.38075614 165.7082895 C35.36666727 165.74698611 28.35268259 165.76652104 21.33848977 165.77180922 C17.1485354 165.77546332 12.95899628 165.78749005 8.76915741 165.81991196 C4.82591299 165.84998774 0.88333518 165.85630658 -3.05999947 165.8445282 C-4.50558265 165.84430741 -5.95119672 165.85261689 -7.3966732 165.87018204 C-19.67837641 166.01127659 -19.67837641 166.01127659 -23.61309814 162.84922791 C-26.61693639 159.24206189 -26.89506943 157.59613261 -26.90911865 152.98686218 C-26.9148288 151.86817749 -26.92053894 150.7494928 -26.92642212 149.59690857 C-26.92809891 147.74704849 -26.92809891 147.74704849 -26.92980957 145.8598175 C-26.93477448 144.56539734 -26.93973938 143.27097717 -26.94485474 141.93733215 C-26.95798998 138.37917619 -26.96442652 134.82103911 -26.96886539 131.26286268 C-26.97179588 129.03859293 -26.97590077 126.81432834 -26.98036957 124.59006119 C-26.99405092 117.62752664 -27.00371298 110.66500389 -27.00757146 103.70245683 C-27.01204613 95.67227067 -27.02956371 87.64225525 -27.05857205 79.61212099 C-27.08022344 73.40223703 -27.09027767 67.19240097 -27.09161258 60.98247969 C-27.09265865 57.27547307 -27.09852347 53.56862679 -27.11643219 49.86166 C-27.13604869 45.72031649 -27.13161016 41.57932743 -27.12512207 37.4379425 C-27.13433685 36.21684784 -27.14355164 34.99575317 -27.15304565 33.73765564 C-27.10159037 23.24542918 -24.4803305 15.4586138 -17.76867676 7.26069641 C-12.53003068 2.49618828 -7.14008725 0.01466967 0 0 Z " fill="#4336A5" transform="translate(424.7686767578125,384.7393035888672)"/>
<path d="M0 0 C1.25053665 -0.00852997 2.5010733 -0.01705994 3.789505 -0.02584839 C5.17279065 -0.02514938 6.5560762 -0.02422633 7.93936157 -0.02310181 C9.3981816 -0.02908709 10.85699846 -0.03589263 12.31581116 -0.04345703 C16.27661158 -0.0611243 20.23732559 -0.06581271 24.1981616 -0.0670886 C26.67336265 -0.06851035 29.14854174 -0.07278037 31.62373734 -0.07808304 C40.26069789 -0.09658568 48.8975967 -0.10475335 57.53457642 -0.10317993 C65.582604 -0.10197844 73.63036343 -0.12308152 81.67832315 -0.15466726 C88.5905551 -0.18082786 95.50269946 -0.19154732 102.41498053 -0.19026911 C106.5422258 -0.18975941 110.66923277 -0.19544673 114.79642868 -0.21662521 C118.6789198 -0.23600414 122.5609452 -0.23613479 126.44345284 -0.22159195 C127.86644357 -0.21950229 129.28946342 -0.2242142 130.71240425 -0.23631287 C142.79157466 -0.33234564 142.79157466 -0.33234564 146.67120361 2.04779053 C149.58144845 4.94251363 150.77689811 6.9033707 151.15721607 11.0257864 C151.15926894 12.09225934 151.16132181 13.15873228 151.16343689 14.25752258 C151.1705217 15.48426193 151.17760651 16.71100128 151.18490601 17.97491455 C151.18261226 19.33145178 151.18010257 20.68798867 151.17739868 22.04452515 C151.18174664 23.47541063 151.18693007 24.90629377 151.19288635 26.33717346 C151.20627853 30.22147219 151.2068548 34.10567363 151.20432305 37.98999095 C151.2032535 41.2330817 151.20813629 44.47615276 151.21292847 47.71923929 C151.22402438 55.37032612 151.22446058 63.02136385 151.21841431 70.67245483 C151.21237326 78.56481765 151.22468859 86.45700225 151.24598438 94.34933466 C151.26359858 101.12651898 151.26960203 107.90364657 151.26634663 114.68085295 C151.26453336 118.72809511 151.26717427 122.77521013 151.28106117 126.82243156 C151.29363205 130.62853174 151.29170261 134.43435402 151.27865028 138.24044991 C151.27628333 139.63644123 151.27902349 141.03245207 151.28727341 142.42842102 C151.29773139 144.33570339 151.28784281 146.24306484 151.27696228 148.15034485 C151.27713002 149.21719481 151.27729776 150.28404478 151.27747059 151.38322353 C150.84509342 154.71112024 149.86904833 156.57091346 147.90274048 159.26742554 C142.31734419 163.45285473 135.73114693 162.69613539 129.06362915 162.67147827 C127.12353218 162.68177315 127.12353218 162.68177315 125.14424133 162.692276 C121.60684281 162.71018002 118.06969274 162.70904387 114.53226256 162.70333362 C111.57276585 162.70023659 108.6133165 162.70634018 105.65382653 162.71237236 C98.66701472 162.72640802 91.68032518 162.7248654 84.69351196 162.71347046 C77.50207361 162.70200044 70.31100868 162.71604804 63.11961955 162.74286693 C56.93169674 162.76507377 50.74389071 162.77164983 44.55593091 162.76579052 C40.86625402 162.76243035 37.17681622 162.76477244 33.48717308 162.78204155 C29.3678895 162.80048057 25.24932464 162.7862726 21.1300354 162.76913452 C19.31321259 162.78363647 19.31321259 162.78363647 17.45968628 162.7984314 C8.55360387 162.72100582 1.12933896 160.98184318 -5.68319702 154.89242554 C-10.74733108 149.07286816 -14.2100789 142.67554973 -14.24443054 134.93580627 C-14.25158585 133.82968491 -14.25874115 132.72356354 -14.26611328 131.58392334 C-14.26880219 130.36983795 -14.27149109 129.15575256 -14.27426147 127.90487671 C-14.28083267 126.62660507 -14.28740387 125.34833344 -14.29417419 124.03132629 C-14.31519555 119.79102835 -14.32557421 115.55073013 -14.33554077 111.31039429 C-14.33958893 109.84972935 -14.34370587 108.38906459 -14.34789085 106.92840004 C-14.36693765 100.06625631 -14.38117021 93.2041233 -14.38950282 86.34195822 C-14.39927622 78.42434127 -14.4256003 70.50700381 -14.46600372 62.58948535 C-14.49617313 56.46708636 -14.51097243 50.34476746 -14.51428384 44.22229558 C-14.51663325 40.56672816 -14.52557911 36.9114595 -14.55074501 33.25597191 C-14.57837654 29.17652183 -14.57419214 25.09769569 -14.56723022 21.01815796 C-14.58004028 19.81014526 -14.59285034 18.60213257 -14.60604858 17.35751343 C-14.56696529 11.08409208 -14.53229294 6.91706275 -10.09725952 2.26742554 C-6.72918018 0.10446568 -3.95813596 0.0122013 0 0 Z " fill="#F0E9FE" transform="translate(412.0972595214844,563.7325744628906)"/>
<path d="M0 0 C1.1276326 -0.0010952 1.1276326 -0.0010952 2.27804565 -0.00221252 C4.75145797 0.0012582 7.22296356 0.04009115 9.69604492 0.0793457 C11.41524731 0.08867575 13.13446302 0.09579096 14.85368347 0.1007843 C19.37003536 0.11983919 23.88557823 0.16892642 28.40161133 0.2243042 C33.01331641 0.27552959 37.62515273 0.29830533 42.23706055 0.32348633 C51.27973295 0.37704707 60.32180593 0.4623412 69.36401367 0.56762695 C69.91024384 1.53306931 70.456474 2.49851166 71.01925659 3.49320984 C71.74459478 4.77026686 72.47003342 6.04726683 73.19555664 7.32421875 C73.55453537 7.95932121 73.9135141 8.59442368 74.28337097 9.24877167 C84.66614417 27.49673118 99.23179427 36.8031891 119.13354492 42.6809082 C123.81771082 43.81350921 128.37743723 43.86196022 133.17651367 43.81762695 C134.0021582 43.82536133 134.82780273 43.8330957 135.6784668 43.84106445 C140.29835954 43.82672809 144.64442583 43.4139132 149.18701172 42.55102539 C150.16131638 42.36779724 151.13562103 42.18456909 152.13945007 41.99578857 C152.87355606 41.85449524 153.60766205 41.7132019 154.36401367 41.56762695 C154.45748268 56.6057265 154.5280054 71.64380351 154.57126236 86.68213177 C154.59188182 93.66481427 154.61999032 100.64731621 154.66577148 107.62988281 C154.70992003 114.36665649 154.7331421 121.1032037 154.74352264 127.84012794 C154.75092161 130.41219857 154.76536975 132.98425875 154.7869339 135.55624962 C154.81590984 139.15491424 154.81997194 142.75280026 154.81811523 146.3515625 C154.83249634 147.41827179 154.84687744 148.48498108 154.86169434 149.58401489 C154.82124987 156.81368574 154.82124987 156.81368574 152.46063232 160.70613098 C148.98773231 163.78956696 146.88271184 163.69454089 142.3039856 163.70133972 C141.01123718 163.70560471 139.71848877 163.70986969 138.38656616 163.71426392 C136.94561765 163.71391437 135.50466915 163.71345282 134.0637207 163.71289062 C132.55269284 163.71588138 131.04166574 163.71928371 129.53063965 163.72306824 C125.41904631 163.73192144 121.30747377 163.73424692 117.19587183 163.73488402 C113.76639328 163.73583222 110.33691961 163.73950952 106.90744293 163.74305612 C98.81728042 163.75120586 90.72712904 163.7536399 82.63696289 163.75292969 C74.28569039 163.7523289 65.93448248 163.76287972 57.58322632 163.77867335 C50.41884847 163.79174064 43.25449176 163.79711392 36.09010208 163.79647428 C31.80870348 163.79621903 27.52736225 163.79908484 23.24597549 163.80965233 C19.21917416 163.81931956 15.19248518 163.81942197 11.16567993 163.8121357 C9.68702913 163.8110881 8.20837138 163.81346307 6.72973251 163.81949615 C4.71250545 163.82719412 2.69524026 163.82138185 0.67800903 163.81486511 C-0.45135511 163.81540988 -1.58071926 163.81595465 -2.74430656 163.81651592 C-5.69938376 163.56217029 -7.24573732 163.29684192 -9.63598633 161.56762695 C-12.54796433 157.80182757 -13.01449988 154.96711955 -13.03039551 150.26745605 C-13.0474202 148.36217888 -13.0474202 148.36217888 -13.06478882 146.41841125 C-13.06214573 145.01827939 -13.05917455 143.61814812 -13.0559082 142.21801758 C-13.06325069 140.73772034 -13.07183745 139.25742882 -13.08157349 137.77714539 C-13.10377664 133.76272019 -13.10672088 129.74850031 -13.10482597 125.73402214 C-13.10470624 122.38151621 -13.11327112 119.02905375 -13.12160349 115.67655993 C-13.1408323 107.76798633 -13.14372289 99.8595183 -13.13696289 91.95092773 C-13.1303183 83.79315909 -13.15320419 75.63584216 -13.19027662 67.47816515 C-13.22096183 60.47164824 -13.23233507 53.46527675 -13.22843981 46.45869398 C-13.22637151 42.27500262 -13.23186408 38.09166298 -13.2563324 33.90803528 C-13.27857856 29.97455154 -13.27674028 26.04180337 -13.25640488 22.10831642 C-13.25299125 20.66555524 -13.25809929 19.22274473 -13.27238846 17.78005028 C-13.29055914 15.80937695 -13.27483664 13.83847822 -13.25744629 11.86779785 C-13.2581588 10.76537498 -13.25887131 9.66295212 -13.25960541 8.5271225 C-11.74141035 1.32225711 -6.59426685 -0.16885455 0 0 Z " fill="#FED92D" transform="translate(588.635986328125,385.432373046875)"/>
<path d="M0 0 C1.21002069 1.03677984 2.39701248 2.10089919 3.5625 3.1875 C4.29726563 3.81011719 5.03203125 4.43273437 5.7890625 5.07421875 C16.37393095 14.65016161 21.35550173 27.81451633 22.83984375 41.80078125 C23.37553509 55.23592017 17.96194344 68.45009666 9.25 78.5 C-1.30287377 89.47498872 -14.18559965 97.06377852 -29.75 97.4375 C-45.2383492 97.07482516 -58.70867617 92.10303663 -69.62890625 80.94921875 C-71.63863573 78.74702899 -73.55498859 76.49882949 -75.4375 74.1875 C-76.18 73.28 -76.9225 72.3725 -77.6875 71.4375 C-80.44935585 66.30833914 -81.89660592 60.78680526 -83.4375 55.1875 C-83.63472656 54.5275 -83.83195313 53.8675 -84.03515625 53.1875 C-86.32276364 41.8160924 -84.4969822 28.04324613 -78.8125 17.9375 C-69.45626897 3.90315346 -57.35984217 -5.76399733 -40.6875 -9.125 C-26.57308259 -11.08733609 -11.77969094 -8.38395498 0 0 Z " fill="#FDD92D" transform="translate(752.4375,318.8125)"/>
<path d="M0 0 C0.66 0 1.32 0 2 0 C1.78828358 0.7725162 1.78828358 0.7725162 1.57229006 1.56063879 C-0.50202622 10.25191561 -0.28961899 18.95831322 -0.2784729 27.83071899 C-0.28348039 29.64601463 -0.28935752 31.46130804 -0.29602563 33.27659833 C-0.3117847 38.24790567 -0.31525406 43.21915642 -0.31667423 48.19048572 C-0.32037543 53.55779289 -0.33553451 58.92506928 -0.34928894 64.2923584 C-0.37154297 73.58594056 -0.38656743 82.87951175 -0.39665604 92.17311478 C-0.41125289 105.6100364 -0.43679257 119.04691978 -0.46498732 132.48381893 C-0.510437 154.28526369 -0.54705936 176.08671395 -0.578125 197.88818359 C-0.608318 219.06397469 -0.64267174 240.2397523 -0.68261719 261.41552734 C-0.68507874 262.72120417 -0.68754028 264.026881 -0.69007643 265.37212379 C-0.70245117 271.92244079 -0.71490768 278.47275763 -0.72740483 285.02307439 C-0.83094532 339.34869753 -0.92001043 393.67433746 -1 448 C-5.62 448 -10.24 448 -15 448 C-15.06842321 394.52029394 -15.12152151 341.04059342 -15.15319599 287.56085217 C-15.15694815 281.24849448 -15.16083112 274.93613687 -15.16479492 268.6237793 C-15.16558185 267.36709127 -15.16636878 266.11040325 -15.16717956 264.81563377 C-15.18023699 244.46184182 -15.2038927 224.10807527 -15.23145839 203.7542984 C-15.25950318 182.87275737 -15.2761743 161.99122966 -15.28226548 141.10967058 C-15.28638384 128.2224383 -15.29939604 115.33527779 -15.3237494 102.4480676 C-15.33959514 93.6133805 -15.34440298 84.77873057 -15.34050413 75.94403029 C-15.33858079 70.84527018 -15.34154979 65.74663558 -15.35761642 60.64789772 C-15.37222199 55.97874305 -15.37294802 51.30979823 -15.36269668 46.64063387 C-15.36142979 44.95272833 -15.36522974 43.26480966 -15.37464955 41.57692993 C-15.45917772 25.49385966 -11.5773886 11.90817114 0 0 Z " fill="#162349" transform="translate(319,271)"/>
<path d="M0 0 C3.52045781 0.78906813 5.73825439 1.68989294 8.625 3.8125 C10.05804064 6.67858129 9.93144155 8.62550783 9.625 11.8125 C6.36768394 17.6860646 1.59195507 22.03617004 -3.1875 26.6875 C-8.28813765 31.67460326 -13.2267698 36.69016683 -17.8762207 42.10253906 C-19.65514811 44.13212166 -21.53308468 45.97164637 -23.5625 47.75 C-24.19542969 48.31589844 -24.82835937 48.88179688 -25.48046875 49.46484375 C-27.59692077 50.97036117 -28.7851915 51.58997532 -31.375 51.8125 C-35.90505763 50.6390887 -38.57148686 49.12062239 -41.86328125 45.8203125 C-42.65154297 45.03269531 -43.43980469 44.24507813 -44.25195312 43.43359375 C-45.05568359 42.60988281 -45.85941406 41.78617187 -46.6875 40.9375 C-47.51056641 40.12152344 -48.33363281 39.30554688 -49.18164062 38.46484375 C-55.9234027 31.65082866 -55.9234027 31.65082866 -56.375 27.8125 C-55.2238201 23.32289839 -52.7275232 20.9071368 -49.375 17.8125 C-49.045 17.4825 -48.715 17.1525 -48.375 16.8125 C-45.8125 16.25 -45.8125 16.25 -42.375 16.8125 C-40.1840818 18.69104119 -38.30374398 20.69749154 -36.40234375 22.8671875 C-34.17792784 25.00159814 -32.2805003 25.85574947 -29.375 26.8125 C-22.08218913 19.63837863 -15.09154068 12.37718752 -8.625 4.4375 C-5.73798741 1.06931864 -4.52342213 -0.25130123 0 0 Z " fill="#18143C" transform="translate(745.375,339.1875)"/>
<path d="M0 0 C2.125 1.6875 2.125 1.6875 4.125 4.6875 C4.45833333 11.02083333 4.45833333 11.02083333 3.125 13.6875 C60.545 13.3575 117.965 13.0275 177.125 12.6875 C177.125 13.3475 177.125 14.0075 177.125 14.6875 C82.415 14.6875 -12.295 14.6875 -109.875 14.6875 C-109.875 14.3575 -109.875 14.0275 -109.875 13.6875 C-78.855 13.3575 -47.835 13.0275 -15.875 12.6875 C-16.37 8.7275 -16.37 8.7275 -16.875 4.6875 C-16.10445404 2.02561397 -15.42154242 1.10791724 -13.25 -0.5625 C-8.53308726 -2.05205139 -4.43541418 -2.02486299 0 0 Z " fill="#2D3F6A" transform="translate(476.875,216.3125)"/>
<path d="M0 0 C3.91093818 3.21566028 6.79264239 6.16834107 7.375 11.3125 C6.9339187 15.64979941 5.72893023 17.64731429 3 21 C-0.35197843 23.23465229 -1.57791246 23.27108649 -5.5 23.25 C-6.93859375 23.25773437 -6.93859375 23.25773437 -8.40625 23.265625 C-11 23 -11 23 -14 21 C-16.79245592 16.55275538 -17.56993519 13.22440589 -17 8 C-15.53420051 4.20616603 -14.33020417 3.18415233 -10.75 1.1875 C-6.7730596 -0.07186446 -4.12976802 -0.61181748 0 0 Z " fill="#303F6A" transform="translate(260,211)"/>
<path d="M0 0 C3.28079607 0.84836747 4.90003114 2.9118294 6.93359375 5.5 C8.36021594 8.35324437 8.24393243 10.33454549 7.93359375 13.5 C6.49609375 16.3125 6.49609375 16.3125 3.93359375 18.5 C-0.35997457 19.80569335 -3.82699077 20.0010403 -8.00390625 18.3125 C-10.24161436 16.34602923 -11.26947819 15.36894103 -12.06640625 12.5 C-11.98938938 8.26407233 -11.44938763 6.04545833 -9.00390625 2.5625 C-5.69970019 0.24252553 -3.95018865 -0.23895281 0 0 Z " fill="#303F6A" transform="translate(262.06640625,445.5)"/>
<path d="M0 0 C2.98087575 2.45094228 4.86351998 4.79527998 7 8 C6.65765965 11.33781845 5.84305224 14.18692026 4 17 C0.98328893 18.89697115 -1.04667453 19.22297709 -4.5625 18.8125 C-5.32691406 18.73644531 -6.09132812 18.66039062 -6.87890625 18.58203125 C-9.3931283 17.89212501 -10.3669962 17.00030556 -12 15 C-13.55024464 11.89951072 -13.28992015 9.42105782 -13 6 C-9.34110372 0.38969236 -6.66973311 -0.67827794 0 0 Z " fill="#303F6A" transform="translate(258,576)"/>
<path d="M0 0 C2.4375 1.5625 2.4375 1.5625 4 4 C4.59576179 9.36185611 4.44380876 12.62901196 1 17 C-2.18503287 18.59251643 -5.5332405 18.39129761 -9 18 C-12.23613354 16.25746655 -12.82395315 15.52814056 -14 12 C-14.375 8.625 -14.375 8.625 -14 5 C-9.42918794 -0.53308828 -6.99574756 -1.56801238 0 0 Z " fill="#303F6A" transform="translate(263,326)"/>
<path d="M0 0 C0 3.86695678 -1.41909971 6.5088452 -3 10 C-3.99 10 -4.98 10 -6 10 C-4.6302836 6.00499382 -2.74277578 3.19990508 0 0 Z " fill="#F8E92A" transform="translate(679,330)"/>
<path d="M0 0 C0.66 0.33 1.32 0.66 2 1 C2 2.98 2 4.96 2 7 C0.35 5.68 -1.3 4.36 -3 3 C-2 1 -2 1 0 0 Z " fill="#0C0A3E" transform="translate(694,369)"/>
<path d="M0 0 C0 0.99 0 1.98 0 3 C-2 4.6875 -2 4.6875 -4 6 C-4.33 5.01 -4.66 4.02 -5 3 C-4.67 2.34 -4.34 1.68 -4 1 C-1.9375 0.375 -1.9375 0.375 0 0 Z " fill="#110E23" transform="translate(773,402)"/>
</svg>
